<?xml version="1.0" encoding="UTF-8"?>
<svg width="23px" height="22px" viewBox="0 0 23 22" version="1.1" xmlns="http://www.w3.org/2000/svg" xmlns:xlink="http://www.w3.org/1999/xlink">
    <!-- Generator: Sketch 51.2 (57519) - http://www.bohemiancoding.com/sketch -->
    <title>download</title>
    <desc>Created with Sketch.</desc>
    <defs></defs>
    <g id="download" stroke="none" stroke-width="1" fill="none" fill-rule="evenodd">
        <path d="M0,16.5163935 L5.35540487,11.032787 L7,12.7177047 L3.29012099,16.5163935 L7,20.3150823 L5.35540487,22 L0,16.5163935 Z M16,12.7177047 L17.6455259,11.032787 L23,16.5163935 L17.6455259,22 L16,20.3150823 L19.709879,16.5163935 L16,12.7177047 Z M8.83397857,16.3506839 C8.83397857,17.048747 8.27962143,17.6142065 7.59526429,17.6142065 C6.91183571,17.6142065 6.35747857,17.048747 6.35747857,16.3506839 C6.35747857,15.6535679 6.91183571,15.0881084 7.59526429,15.0881084 C8.27962143,15.0881084 8.83397857,15.6535679 8.83397857,16.3506839 Z M12.6829071,16.3506839 C12.6829071,17.048747 12.12855,17.6142065 11.4441929,17.6142065 C10.7607643,17.6142065 10.2064071,17.048747 10.2064071,16.3506839 C10.2064071,15.6535679 10.7607643,15.0881084 11.4441929,15.0881084 C12.12855,15.0881084 12.6829071,15.6535679 12.6829071,16.3506839 Z M16.6324929,16.3506839 C16.6324929,17.048747 16.0781357,17.6142065 15.3937786,17.6142065 C14.71035,17.6142065 14.1559929,17.048747 14.1559929,16.3506839 C14.1559929,15.6535679 14.71035,15.0881084 15.3937786,15.0881084 C16.0781357,15.0881084 16.6324929,15.6535679 16.6324929,16.3506839 Z M8.86712857,0 L14.2612,0 L14.2612,5.40833155 L17.7730571,5.40833155 L11.5683429,11.7382579 L5.37941429,5.42632775 L8.9312,5.42632775 L8.86712857,0 Z" fill="#D6D6D6"></path>
    </g>
</svg>