<?xml version="1.0" encoding="UTF-8"?>
<svg width="21px" height="21px" viewBox="0 0 21 21" version="1.1" xmlns="http://www.w3.org/2000/svg" xmlns:xlink="http://www.w3.org/1999/xlink">
    <!-- Generator: Sketch 51.2 (57519) - http://www.bohemiancoding.com/sketch -->
    <title>url</title>
    <desc>Created with Sketch.</desc>
    <defs></defs>
    <g id="Symbols" stroke="none" stroke-width="1" fill="none" fill-rule="evenodd">
        <g id="url" fill="#CCCCCB">
            <path d="M21,6.04449061 C20.91641,6.45365504 20.8597388,6.87098146 20.7432087,7.27056441 C20.4839381,8.16483532 20.0011705,8.93312758 19.3448475,9.59105546 C18.2107156,10.7287668 17.0836676,11.8728658 15.9389098,12.999931 C13.4478575,15.4520786 9.30909066,15.0439788 7.38297908,12.1645684 C7.35712286,12.1262425 7.333746,12.0857874 7.30434783,12.0392995 C7.31851562,12.0187171 7.32984986,11.9956506 7.3472054,11.9786168 C7.79384511,11.5300619 8.23729705,11.0776034 8.69031226,10.6354361 C9.00306632,10.3291838 9.38417997,10.2127867 9.80921379,10.331313 C9.94522461,10.3692841 10.0907987,10.4576466 10.1797016,10.5658817 C11.0145389,11.5797436 12.6257712,11.6922372 13.6150374,10.7883848 C13.8952056,10.5321691 14.1562472,10.255371 14.425081,9.98637998 C15.3151727,9.0953029 16.2116399,8.2102586 17.0918141,7.30924518 C17.7456577,6.64031634 17.962425,5.83263357 17.6992582,4.93303963 C17.4385708,4.04231742 16.8307724,3.4741715 15.9272214,3.26728263 C15.088488,3.07494341 14.343262,3.29851114 13.7216501,3.89540148 C13.2845736,4.31556686 12.8652069,4.75454032 12.4306099,5.17754465 C12.3835019,5.22296793 12.2729931,5.25490618 12.2173846,5.2314848 C11.0152472,4.72898972 9.77237752,4.56645953 8.48381667,4.76341205 C8.44485524,4.76944483 8.40518541,4.76944483 8.33222127,4.77476787 C8.38782987,4.71089138 8.42183257,4.66724244 8.46043981,4.62820681 C9.41570331,3.67005941 10.3766339,2.71758992 11.3258761,1.75340974 C12.2967242,0.766872789 13.4549414,0.175305487 14.8348845,0.0312285078 C14.8664078,0.0280346832 14.8965144,0.0106460822 14.9269751,0 L15.8457566,0 C15.9038445,0.0120655598 15.9612241,0.030518769 16.0200204,0.0361966795 C18.1646702,0.245924499 20.0741347,1.79138077 20.7159357,3.86204376 C20.8469878,4.28469322 20.9072009,4.72934459 21,5.16370474 L21,6.04449061 Z M13.6956522,8.94908352 C13.2043078,9.45222649 12.7366639,9.96388529 12.2322311,10.4365132 C11.9085593,10.7402441 11.4964525,10.7892101 11.0747948,10.6355705 C10.9987408,10.6078941 10.9219793,10.5532509 10.8710408,10.4900919 C9.98598409,9.39758332 8.36550259,9.28758733 7.34885473,10.2622938 C6.94983636,10.644796 6.56496758,11.0422009 6.17479271,11.4335737 C5.41743604,12.1929009 4.65088214,12.9433575 3.90590636,13.7147487 C2.64482438,15.0208625 3.20337935,17.1842353 4.93316641,17.6916362 C5.830604,17.9545621 6.63076317,17.740957 7.30605223,17.0941096 C7.73867586,16.6796731 8.15608869,16.2489145 8.57633144,15.8213495 C8.65026303,15.7461264 8.7079226,15.7202241 8.81475199,15.7656418 C9.9923514,16.2680751 11.2152295,16.4309402 12.4826788,16.2425277 C12.5346785,16.2350763 12.5873857,16.2322377 12.671222,16.2244316 C12.629127,16.2790747 12.6071952,16.3145573 12.5785422,16.3432982 C11.5820576,17.3439069 10.5919402,18.3505477 9.58696572,19.3422858 C6.71389199,22.1759246 1.94901842,21.2494744 0.461896782,17.5333839 C-0.414670159,15.3423346 -0.0404135716,13.2971188 1.55742859,11.5566983 C2.70955875,10.3013246 3.93243684,9.1084003 5.16203599,7.92824972 C7.61734315,5.5714968 11.6404246,5.98344955 13.5743195,8.76386446 C13.6199519,8.8291524 13.6616932,8.89692413 13.6956522,8.94908352 Z"></path>
        </g>
    </g>
</svg>